Coordinates
version=1
nRows=8
nColumns=40
inDegrees=yes

Units are S.I. units (second, meters, Newtons, ...)
Angles are in degrees.

endheader
time	pelvis_tilt	pelvis_list	pelvis_rotation	pelvis_tx	pelvis_ty	pelvis_tz	hip_flexion_r	hip_adduction_r	hip_rotation_r	knee_angle_r	knee_angle_r_beta	ankle_angle_r	subtalar_angle_r	mtp_angle_r	hip_flexion_l	hip_adduction_l	hip_rotation_l	knee_angle_l	knee_angle_l_beta	ankle_angle_l	subtalar_angle_l	mtp_angle_l	lumbar_extension	lumbar_bending	lumbar_rotation	arm_flex_r	arm_add_r	arm_rot_r	elbow_flex_r	pro_sup_r	wrist_flex_r	wrist_dev_r	arm_flex_l	arm_add_l	arm_rot_l	elbow_flex_l	pro_sup_l	wrist_flex_l	wrist_dev_l
      3.64478571	     -4.77660837	     -4.61717961	      9.48444500	      0.92861477	      0.91557466	      0.52673037	      1.89238021	      5.49202277	    -17.73649550	     15.06923846	     15.06923846	     19.54961350	     -6.48824391	     -1.30239570	     29.91158121	     -5.30575016	      1.42350202	     18.23696097	     18.23696097	      1.15535115	     -6.59827331	     -0.81951418	     -8.43223992	      1.23342208	      3.45378897	     49.53464441	    -21.01259744	     -7.60620835	     94.90217258	     44.31237064	      0.00000000	      0.00000000	    -18.68310226	     -8.55345727	     11.62672653	     28.51996073	     43.97455027	      0.00000000	      0.00000000
      3.66457143	     -4.88658177	     -4.73088029	      9.76802590	      0.92981208	      0.91467429	      0.52318680	      1.24382945	      5.52486808	    -17.99479527	     14.58967430	     14.58967430	     19.71209342	     -6.22345498	     -1.19761905	     30.03914262	     -5.12854654	      1.66201863	     19.08008661	     19.08008661	      0.70136141	     -7.50638876	     -1.38019874	     -8.31677881	      1.16639204	      3.43961030	     50.03841847	    -21.00913584	     -7.54611708	     95.62789924	     44.30725639	      0.00000000	      0.00000000	    -18.36428711	     -8.57633903	     11.62110739	     28.95914327	     44.00532260	      0.00000000	      0.00000000
      3.68435714	     -4.98137777	     -4.69011967	      9.93552856	      0.93108834	      0.91404445	      0.51956513	      0.68237306	      5.34887527	    -18.06454451	     14.37590348	     14.37590348	     19.86528923	     -6.16888326	     -1.14529500	     30.10779586	     -4.84913510	      1.76506136	     19.98920087	     19.98920087	      0.55882206	     -8.14190412	     -1.59014517	     -8.25761014	      0.90734730	      3.52346051	     50.43609359	    -20.97676995	     -7.54931924	     95.87005611	     44.30719332	      0.00000000	      0.00000000	    -17.84136188	     -8.65647892	     11.58903543	     29.24476752	     44.02642670	      0.00000000	      0.00000000
      3.70414286	     -5.07133726	     -4.75239717	     10.09275288	      0.93240859	      0.91360971	      0.51577113	      0.11865936	      5.26377655	    -18.19848727	     14.12917155	     14.12917155	     19.86908746	     -5.99058806	     -1.02707783	     30.25017059	     -4.59936527	      2.21669047	     21.02988795	     21.02988795	      0.59997075	     -9.02747746	     -1.77266986	     -8.18716446	      0.81079992	      3.63252678	     50.65164848	    -20.97130702	     -7.57797037	     96.09613731	     44.31029839	      0.00000000	      0.00000000	    -17.17566360	     -8.68496789	     11.52839258	     29.69547222	     44.05735773	      0.00000000	      0.00000000
      3.72392857	     -5.19095587	     -4.69256929	     10.17760048	      0.93375015	      0.91354852	      0.51187505	     -0.35108712	      4.99981985	    -18.24152980	     14.04524334	     14.04524334	     19.79666504	     -5.91627044	     -0.92970488	     30.24116485	     -4.26586681	      2.43285016	     21.80305461	     21.80305461	      0.71672242	     -9.56752502	     -1.87318575	     -8.09576055	      0.59203701	      3.72382870	     50.67414535	    -20.82801607	     -7.52867670	     96.11646548	     44.31194915	      0.00000000	      0.00000000	    -16.35235819	     -8.77196142	     11.46241841	     30.09666786	     44.08480709	      0.00000000	      0.00000000
      3.74371429	     -5.27203194	     -4.78314452	     10.14955740	      0.93512894	      0.91360924	      0.50807621	     -0.80798100	      4.87100011	    -18.37979769	     14.00781410	     14.00781410	     19.65482291	     -5.65501912	     -0.80084441	     30.29357790	     -4.04581233	      3.01912948	     22.76225152	     22.76225152	      1.17311089	    -10.60036813	     -1.79338559	     -8.05318049	      0.53512488	      4.00575094	     50.65589536	    -20.92213796	     -7.65256012	     95.97592993	     44.32992640	      0.00000000	      0.00000000	    -15.53855080	     -8.85004871	     11.29526977	     30.78068047	     44.13417577	      0.00000000	      0.00000000
      3.76350000	     -5.37720610	     -4.77089640	     10.06437719	      0.93641569	      0.91398831	      0.50412345	     -1.14316071	      4.56524714	    -18.46442212	     14.18110181	     14.18110181	     19.49855344	     -5.39840739	     -0.70672524	     30.20464412	     -3.74014338	      3.43437350	     23.46971750	     23.46971750	      1.71217134	    -11.36929459	     -1.48638643	     -7.98882403	      0.44619442	      4.35079750	     50.49359449	    -20.97016387	     -7.79626838	     95.56337981	     44.35911756	      0.00000000	      0.00000000	    -14.68498028	     -8.97881721	     11.03275690	     31.64821095	     44.20076749	      0.00000000	      0.00000000
      3.78328571	     -5.54519365	     -4.73805035	      9.89115996	      0.93765643	      0.91459921	      0.50030205	     -1.28872623	      4.16362308	    -18.55867937	     14.58253042	     14.58253042	     19.28465165	     -5.07181090	     -0.63757864	     30.04420377	     -3.47392055	      3.65668031	     23.95887664	     23.95887664	      2.54262323	    -11.75756019	     -0.63827980	     -7.85210497	      0.25659378	      4.63385180	     50.29637273	    -20.80542309	     -7.98235857	     94.72451244	     44.41643136	      0.00000000	      0.00000000	    -13.99887666	     -9.16946765	     10.46432645	     33.03074041	     44.32647047	      0.00000000	      0.00000000
